# xmcd CD database file
#
# Track frame offsets:
#	182
#	10102
#	21432
#	33577
#	43887
#	56407
#	71602
#	82292
#	92332
#	105550
#	115290
#	126565
#	137132
#	148002
#	159717
#	173180
#
# Disc length: 2447 seconds
#
# Revision: 4
# Processed by: cddbd v1.5.2PL0 Copyright (c) Steve Scherf et al.
# Submitted via: CDex 1.50
#
DISCID=e7098d10
DTITLE=Various Artist - 16 All-Time Country Greats - Dc 4
DYEAR=1989
DGENRE=Country
TTITLE0=Dave Dudley - Six Days On The Road
TTITLE1=Hank Locklin - Send Me The Pillow
TTITLE2=George Jones - She Thinks I Still Care
TTITLE3=Frankie Laine - I Believe
TTITLE4=Faron Young - It's Four In The Morning
TTITLE5=Kenny Rogers - For The Good Times
TTITLE6=Freddie Fender - A Man Can Cry
TTITLE7=Willie Nelson - I Didn't Sleep A Wink
TTITLE8=Donna Fargo - Daddy
TTITLE9=Stonewall Jackson - Shake'em Up And Roll'em Down
TTITLE10=Johnny Cash - Big River
TTITLE11=Waylon Jennings - Dream Baby
TTITLE12=Sammi Smith - Help Me Make It Through The Night
TTITLE13=Cowboy Copas - Memories Of You
TTITLE14=Patsy Cline - She's Got You
TTITLE15=Nashville Superstars - Kansas City
EXTD=YEAR: 1989
EXTT0=
EXTT1=
EXTT2=
EXTT3=
EXTT4=
EXTT5=
EXTT6=
EXTT7=
EXTT8=
EXTT9=
EXTT10=
EXTT11=
EXTT12=
EXTT13=
EXTT14=
EXTT15=
PLAYORDER=
